<svg width="1347" height="1609" viewBox="0 0 1347 1609" fill="none" xmlns="http://www.w3.org/2000/svg">
<path d="M175.731 389.017L150.301 463.667L228.233 480.074L251.202 529.293L263.507 568.669L334.877 532.575L416.91 504.684L435.778 513.707L460.388 544.88L477.615 568.669L509.608 645.781L521.093 676.133L515.35 693.36L496.483 703.204L493.201 722.071L505.506 743.4L518.632 746.681L528.476 730.275L545.703 722.071L577.696 725.353L599.025 721.251L612.15 711.407L620.353 698.282H628.557L633.479 686.797V671.211L617.892 651.523L608.048 649.062L553.086 571.13L528.476 538.317L521.093 513.707V480.074L557.188 446.44L612.15 419.369L681.058 410.345L599.025 386.556H526.015L460.388 371.79L380.815 316.007L308.626 288.192C303.834 289.36 299.372 290.45 295.5 291.397L215.928 330.773L175.731 389.017Z" fill="#2F1E1E"/>
<path d="M701.567 373.43L699.926 395.579L681.058 410.345L690.902 425.932L699.926 433.315L708.95 455.464L704.684 500.582L667.113 532.575L612.15 571.13H553.086L608.048 649.062L617.892 651.523L633.479 671.211L663.831 686.797L716.333 722.071L758.17 725.353L772.115 659.726V607.225L773.756 579.334L768.014 544.88L766.373 526.012L758.17 500.582L747.505 470.23L729.458 429.213L716.333 398.861L701.567 373.43Z" fill="#2F1E1E"/>
<path d="M642.502 766.369L683.519 769.651L716.333 758.986L741.763 786.057L764.732 772.932L758.17 725.353L716.333 722.071L663.831 686.797L633.479 671.211V686.797L636.76 711.407V738.478L633.479 754.885L642.502 766.369Z" fill="#2F1E1E"/>
<path d="M262.687 809.847L297.141 857.426L323.392 877.934L379.175 918.131L357.026 822.312L308.626 786.057L279.914 766.369L228.233 746.681L251.202 780.315L262.687 809.847Z" fill="#2F1E1E"/>
<path d="M493.201 722.071L496.483 703.204L515.35 693.36L521.093 676.133L509.608 645.781L477.615 568.669V594.1L450.544 639.218L421.012 667.109L369.331 698.282L341.439 711.407V754.885L401.324 790.979L463.669 813.948L496.483 818.87L518.632 809.847L509.608 778.674L496.483 738.478L493.201 722.071Z" fill="#2F1E1E"/>
<path d="M744.224 911.568L764.732 873.833L772.115 855.04L754.068 843.48H714.692L736.021 857.426L744.224 868.09L736.021 895.161L697.465 906.646L674.496 911.568L663.831 873.833L697.465 850.043L646.604 873.833L591.642 911.568L552.266 970.632L601.486 979.655L642.502 970.632L674.496 961.608L725.356 932.897L744.224 911.568Z" fill="#2F1E1E"/>
<path d="M628.557 762.268L642.502 766.369L633.479 754.885L636.76 738.478V711.407L633.479 686.797L628.557 698.282H620.353L612.15 711.407L599.025 721.251L577.696 725.353L545.703 722.071L528.476 730.275L518.632 746.681L505.506 743.4L493.201 722.071L496.483 738.478L509.608 778.674L518.632 809.847L539.961 813.948L552.266 800.003L567.852 783.596H583.438L603.947 778.674L620.353 769.651L628.557 762.268Z" fill="#2F1E1E"/>
<path fill-rule="evenodd" clip-rule="evenodd" d="M477.615 568.669L460.388 544.88L435.778 513.707L407.886 538.317L352.104 565.388L296.321 588.357L299.602 653.984L323.392 676.953L369.331 686.797L421.012 667.109L450.544 639.218L477.615 594.1V568.669ZM354.565 620.35L334.877 617.889L341.439 603.944L357.026 588.357L376.714 576.873L379.175 575.642L388.198 571.13H395.581L410.347 576.873L421.012 584.256L414.449 590.818L392.3 603.944L380.815 609.686L369.331 615.428L354.565 620.35Z" fill="#2F1E1E"/>
<path fill-rule="evenodd" clip-rule="evenodd" d="M528.476 538.317L553.086 571.13H612.15L667.113 532.575L704.684 500.582L708.95 455.464L699.926 433.315L690.902 425.932L650.706 441.518L603.947 458.745L562.93 470.23L546.523 473.511L521.093 480.074V513.707L528.476 538.317ZM590.821 515.348L562.93 520.27L561.289 510.426L576.876 493.199L599.025 485.816L608.048 483.778L624.455 480.074H643.323L636.76 490.738L617.892 508.785L590.821 515.348Z" fill="#2F1E1E"/>
<path d="M435.778 513.707L416.91 504.684L334.877 532.575L263.507 568.669L259.406 598.201L296.321 588.357L352.104 565.388L407.886 538.317L435.778 513.707Z" fill="#2F1E1E"/>
<path d="M557.188 446.44L521.093 480.074L546.523 473.511L562.93 470.23L603.947 458.745L650.706 441.518L690.902 425.932L681.058 410.345L612.15 419.369L557.188 446.44Z" fill="#2F1E1E"/>
<path d="M787.702 800.003L795.085 758.986L764.732 772.932L741.763 786.057L716.333 758.986L683.519 769.651L706.489 778.674L704.684 783.596L697.465 803.284L653.987 825.433L583.438 839.379L534.218 843.48L530.937 827.894L539.961 813.948L518.632 809.847L496.483 818.87L463.669 813.948L401.324 790.979L341.439 754.885L357.026 822.312L379.175 918.131L444.802 949.303L552.266 970.632L591.642 911.568L646.604 873.833L697.465 850.043L714.692 843.48H754.068L772.115 855.04L782.78 827.894L787.702 800.003Z" fill="#2F1E1E"/>
<path d="M778.678 607.225L773.756 579.334L772.115 607.225V659.726L758.17 725.353L764.732 772.932L795.085 758.986L797.546 730.275L795.085 698.282L787.702 657.265L778.678 607.225Z" fill="#2F1E1E"/>
<path d="M534.218 843.48L583.438 839.379L653.987 825.433L697.465 803.284L704.684 783.596H683.519L642.502 788.518L608.048 800.003C602.142 801.972 568.399 817.777 552.266 825.433L534.218 843.48Z" fill="#2F1E1E"/>
<path d="M706.489 778.674L683.519 769.651L642.502 766.369L628.557 762.268L620.353 769.651L603.947 778.674L583.438 783.596H567.852L552.266 800.003L539.961 813.948L530.937 827.894L534.218 843.48L552.266 825.433C568.399 817.777 602.142 801.972 608.048 800.003L642.502 788.518L683.519 783.596H704.684L706.489 778.674Z" fill="#2F1E1E"/>
<path d="M376.714 576.873L357.026 588.357L352.104 603.944L361.127 612.967L369.331 615.428L380.815 609.686L390.659 599.842L392.3 588.357L388.198 581.795L379.175 575.642L376.714 576.873Z" fill="#2F1E1E"/>
<path d="M590.821 515.348L617.892 508.785V490.738L608.048 483.778L599.025 485.816L576.876 493.199L575.235 506.324L582.618 513.707L590.821 515.348Z" fill="#2F1E1E"/>
<path d="M374.253 272.53C375.893 272.53 450.544 260.225 452.185 261.045C453.497 261.701 481.17 261.319 494.842 261.045L548.984 272.53L608.048 295.499L649.065 338.977C661.37 351.555 686.472 376.876 688.441 377.532C690.41 378.188 696.918 389.837 699.926 395.579L701.567 373.43L716.333 398.861L718.794 384.095L708.95 345.539L722.895 311.906L720.434 263.506L718.256 259.336C693.044 219.132 539.14 155.222 539.14 155.222C539.14 155.222 438.382 148.552 376.714 191.317C315.046 234.082 295.5 291.397 295.5 291.397C299.372 290.45 303.834 289.36 308.626 288.192C335.646 281.604 373.138 272.53 374.253 272.53Z" fill="#2F1E1E"/>
<path d="M202.803 68.2672L155.223 120.768L187.216 176.551L212.647 240.537L286.477 155.222C311.087 134.441 370.315 93.6975 410.347 96.9788C460.388 101.08 566.211 104.362 597.384 129.792C622.322 150.136 670.667 190.77 691.723 208.544L655.628 147.839L616.252 111.745L576.876 75.6502L539.14 39.5556L467.771 14.1253L393.941 1L322.572 9.20331L253.663 31.3523L202.803 68.2672Z" fill="#2F1E1E"/>
<path d="M297.141 857.426L329.955 924.693L359.487 975.554L402.964 987.038L505.506 1005.91L597.384 1010.83L694.184 1029.7H740.943L810.671 1014.11L832 991.96V970.632L818.875 945.201L810.671 918.131L797.546 877.934L790.983 832.816L787.702 800.003M297.141 857.426L262.687 809.847M297.141 857.426L323.392 877.934L379.175 918.131M262.687 809.847H232.335L220.85 804.925L205.264 783.596L185.576 762.268L168.348 736.837L156.864 719.61L138.816 698.282L121.589 676.953L112.566 658.086V642.499L119.949 631.835M262.687 809.847L251.202 780.315L228.233 746.681M119.949 631.835L130.613 629.374L150.301 640.859L169.169 656.445L187.216 688.438L197.881 713.868L212.647 721.251M119.949 631.835L87.9556 589.998L51.0405 529.293L29.7117 471.05L1 389.017L1 291.397L51.0405 165.066L133.074 120.768H155.223M212.647 721.251H220.85L218.389 695.821L205.264 659.726L169.169 595.74L158.504 553.903M212.647 721.251L228.233 746.681M158.504 553.903L150.301 463.667M158.504 553.903L187.216 532.575L150.301 463.667M150.301 463.667L175.731 389.017L215.928 330.773M150.301 463.667L228.233 480.074L251.202 529.293L263.507 568.669M215.928 330.773C215.928 330.773 264.425 306.775 295.5 291.397M215.928 330.773L212.647 240.537M215.928 330.773L295.5 291.397M295.5 291.397C263.144 271.535 212.647 240.537 212.647 240.537M295.5 291.397C295.5 291.397 315.046 234.082 376.714 191.317C438.382 148.552 539.14 155.222 539.14 155.222C539.14 155.222 693.044 219.132 718.256 259.336M295.5 291.397L212.647 240.537M295.5 291.397C299.372 290.45 303.834 289.36 308.626 288.192M699.926 395.579C696.918 389.837 690.41 378.188 688.441 377.532C686.472 376.876 661.37 351.555 649.065 338.977L608.048 295.499L548.984 272.53L494.842 261.045C481.17 261.319 453.497 261.701 452.185 261.045C450.544 260.225 375.893 272.53 374.253 272.53C373.138 272.53 335.646 281.604 308.626 288.192M699.926 395.579L701.567 373.43L716.333 398.861M699.926 395.579L681.058 410.345M716.333 398.861L729.458 429.213L747.505 470.23L758.17 500.582L766.373 526.012M716.333 398.861L718.794 384.095M766.373 526.012L773.756 513.707L776.217 500.582L773.756 490.738L768.014 471.87L766.373 458.745L764.732 433.315L758.17 404.603L752.427 384.095L745.865 375.891L735.2 371.79L727.817 374.251L722.895 377.532L718.794 384.095M766.373 526.012L768.014 544.88L773.756 579.334M718.794 384.095L708.95 345.539L722.895 311.906L720.434 263.506M773.756 579.334L778.678 607.225L787.702 657.265L795.085 698.282L797.546 730.275L795.085 758.986M773.756 579.334L772.115 607.225V659.726L758.17 725.353M795.085 758.986L787.702 800.003M795.085 758.986L764.732 772.932M787.702 800.003L782.78 827.894L772.115 855.04M552.266 970.632L601.486 979.655L642.502 970.632L674.496 961.608L725.356 932.897L744.224 911.568L764.732 873.833L772.115 855.04M552.266 970.632L444.802 949.303L379.175 918.131M552.266 970.632L591.642 911.568L646.604 873.833L697.465 850.043M379.175 918.131L357.026 822.312M155.223 120.768L202.803 68.2672L253.663 31.3523L322.572 9.20331L393.941 1L467.771 14.1253L539.14 39.5556L576.876 75.6502L616.252 111.745L655.628 147.839L691.723 208.544M155.223 120.768L187.216 176.551L212.647 240.537M691.723 208.544C670.667 190.77 622.322 150.136 597.384 129.792C566.211 104.362 460.388 101.08 410.347 96.9788C370.315 93.6975 311.087 134.441 286.477 155.222L212.647 240.537M691.723 208.544L718.256 259.336M720.434 263.506C719.877 262.148 719.147 260.757 718.256 259.336M720.434 263.506L718.256 259.336M228.233 746.681L279.914 766.369L308.626 786.057L357.026 822.312M369.331 615.428L354.565 620.35L334.877 617.889L341.439 603.944L357.026 588.357M369.331 615.428L380.815 609.686M369.331 615.428L361.127 612.967L352.104 603.944L357.026 588.357M357.026 588.357L376.714 576.873L379.175 575.642M590.821 515.348L562.93 520.27L561.289 510.426L576.876 493.199M590.821 515.348L617.892 508.785M590.821 515.348L582.618 513.707L575.235 506.324L576.876 493.199M617.892 508.785L636.76 490.738L643.323 480.074H624.455L608.048 483.778M617.892 508.785V490.738L608.048 483.778M576.876 493.199L599.025 485.816L608.048 483.778M534.218 843.48L583.438 839.379L653.987 825.433L697.465 803.284L704.684 783.596M534.218 843.48L530.937 827.894L539.961 813.948M534.218 843.48L552.266 825.433C568.399 817.777 602.142 801.972 608.048 800.003M683.519 769.651L706.489 778.674L704.684 783.596M683.519 769.651L642.502 766.369M683.519 769.651L716.333 758.986L741.763 786.057L764.732 772.932M642.502 766.369L628.557 762.268L620.353 769.651L603.947 778.674L583.438 783.596H567.852L552.266 800.003L539.961 813.948M642.502 766.369L633.479 754.885L636.76 738.478V711.407L633.479 686.797M539.961 813.948L518.632 809.847M493.201 722.071L505.506 743.4L518.632 746.681L528.476 730.275L545.703 722.071L577.696 725.353L599.025 721.251L612.15 711.407L620.353 698.282H628.557L633.479 686.797M493.201 722.071L496.483 703.204L515.35 693.36L521.093 676.133L509.608 645.781L477.615 568.669M493.201 722.071L496.483 738.478L509.608 778.674L518.632 809.847M477.615 568.669L460.388 544.88L435.778 513.707M477.615 568.669V594.1L450.544 639.218L421.012 667.109M633.479 686.797V671.211M633.479 671.211L617.892 651.523L608.048 649.062L553.086 571.13M633.479 671.211L663.831 686.797L716.333 722.071L758.17 725.353M553.086 571.13L528.476 538.317L521.093 513.707V480.074M553.086 571.13H612.15L667.113 532.575L704.684 500.582L708.95 455.464L699.926 433.315L690.902 425.932M521.093 480.074L557.188 446.44L612.15 419.369L681.058 410.345M521.093 480.074L546.523 473.511L562.93 470.23L603.947 458.745L650.706 441.518L690.902 425.932M681.058 410.345L690.902 425.932M681.058 410.345L599.025 386.556H526.015L460.388 371.79L380.815 316.007L308.626 288.192M435.778 513.707L416.91 504.684L334.877 532.575L263.507 568.669M435.778 513.707L407.886 538.317L352.104 565.388L296.321 588.357M263.507 568.669L259.406 598.201L296.321 588.357M296.321 588.357L299.602 653.984L323.392 676.953L369.331 686.797L421.012 667.109M608.048 800.003C613.955 798.034 633.479 791.526 642.502 788.518M608.048 800.003L642.502 788.518M642.502 788.518L683.519 783.596H704.684M421.012 667.109L369.331 698.282L341.439 711.407V754.885M341.439 754.885L401.324 790.979L463.669 813.948L496.483 818.87L518.632 809.847M341.439 754.885L357.026 822.312M697.465 850.043L663.831 873.833L674.496 911.568L697.465 906.646L736.021 895.161L744.224 868.09L736.021 857.426L714.692 843.48M697.465 850.043L714.692 843.48M714.692 843.48H754.068L772.115 855.04M764.732 772.932L758.17 725.353M379.175 575.642L388.198 571.13H395.581L410.347 576.873L421.012 584.256L414.449 590.818L392.3 603.944L380.815 609.686M379.175 575.642L388.198 581.795L392.3 588.357L390.659 599.842L380.815 609.686" stroke="black"/>
<path d="M493.5 938L492 952L539 945L601.5 952L654 977L710.5 1055L757 1111L770 1121.5L793.5 1096L818 1075L825 1069L836 1060.25L847 1051.5L845 1046L833 1001.5L816.5 918L805 860L763.5 796L731 746L696.5 708L678 685.5L653 659L630 642L605.5 625.5L586.5 610.765L581 606.5L564 594.5L538.5 592L528.5 594.778L520.5 597L512.5 611.5L520.5 632L538.5 656L562 677L591 705.5L625.5 740L645 780.5L661 819.5L667 847.5L658 850.5L647.5 846L632.5 840L608 828.5L586.5 822L559 817L521.5 811.5L494.5 808.5L449 811.5L433.5 812.5L422.5 815L387.5 812.5L365 823.5L357.5 840.5L360.5 850.5L372.5 870.5L399.5 880.5L426.5 884H470.5L506.5 888.5L539 896.5L565 909L580.5 917.25L568.5 918H550.5H534L515.5 922L498.5 930.5L493.5 938Z" fill="#151117"/>
<path d="M519.5 1086.5L548.324 1101.5L515.5 1075L492 1016.5H510.5L580.5 1039.5L635.5 1097L688 1147.5L728 1172L770 1121.5L757 1111L710.5 1055L654 977L601.5 952L539 945L492 952L493.5 977L499.5 985L504 994L525.5 985L559 977L580.5 985L534 988.5L504 994L499.5 996L492 1002.5L485.5 1010L484 1028L492 1055L519.5 1086.5Z" fill="#151117"/>
<path d="M625 1225.5L657.5 1259L675 1238.5L697.5 1207L728 1172L688 1147.5L635.5 1097L580.5 1039.5L510.5 1016.5H492L515.5 1075L548.324 1101.5L547 1098L542.75 1086.5L538.5 1085.5L525.5 1075V1068L538.5 1075L542.75 1086.5L547 1098L548.324 1101.5L561 1135L597 1192L625 1225.5Z" fill="#151117"/>
<path fill-rule="evenodd" clip-rule="evenodd" d="M770 1121.5L793.5 1096L818 1075L825 1069L836 1060.25L847 1051.5L865.5 938L910.5 780.5L931.918 565.5L1218.33 1287.52L1345.5 1608.11L1058.5 1585L993.5 1548L883 1479.5L802.5 1401L728 1334L688 1296.34L647 1289L657.5 1259L675 1238.5L697.5 1207L728 1172L770 1121.5ZM1180.5 1289L1163.5 1296.34L1171.5 1301.5L1180.5 1289Z" fill="#151117"/>
<path d="M657.5 1259L625 1225.5L597 1192L561 1135L548.324 1101.5M657.5 1259L675 1238.5L697.5 1207L728 1172M657.5 1259L647 1289L688 1296.34L728 1334L802.5 1401L883 1479.5L993.5 1548L1058.5 1585L1345.5 1608.11L1218.33 1287.52L931.918 565.5L910.5 780.5L865.5 938L847 1051.5M542.75 1086.5L547 1098L548.324 1101.5M542.75 1086.5L538.5 1075L525.5 1068V1075L538.5 1085.5L542.75 1086.5ZM548.324 1101.5L519.5 1086.5L492 1055L484 1028L485.5 1010L492 1002.5L499.5 996L504 994M548.324 1101.5L515.5 1075L492 1016.5H510.5L580.5 1039.5L635.5 1097L688 1147.5L728 1172M504 994L499.5 985L493.5 977L492 952M504 994L534 988.5L580.5 985L559 977L525.5 985L504 994ZM492 952L493.5 938L498.5 930.5L515.5 922L534 918H550.5H568.5L580.5 917.25M492 952L539 945L601.5 952L654 977L710.5 1055L757 1111L770 1121.5M607.5 918L592.5 916.5L580.5 917.25M580.5 917.25L565 909L539 896.5L506.5 888.5L470.5 884H426.5L399.5 880.5L372.5 870.5L360.5 850.5L357.5 840.5L365 823.5L387.5 812.5L422.5 815L433.5 812.5L449 811.5L494.5 808.5L521.5 811.5L559 817L586.5 822L608 828.5L632.5 840L647.5 846L658 850.5L667 847.5L661 819.5L645 780.5L625.5 740L591 705.5L562 677L538.5 656L520.5 632L512.5 611.5L520.5 597L528.5 594.778L538.5 592L564 594.5L581 606.5L586.5 610.765L605.5 625.5L630 642L653 659L678 685.5L696.5 708L731 746L763.5 796L805 860L816.5 918L833 1001.5L845 1046L847 1051.5M847 1051.5L865.5 1075L883 1111L936.5 1144L974 1175.5L986.5 1185L993.5 1175.5L1010 1185L1080 1242.5L1163.5 1296.34M847 1051.5L836 1060.25M770 1121.5L793.5 1096L818 1075M770 1121.5L728 1172M1163.5 1296.34L1171.5 1301.5L1180.5 1289L1163.5 1296.34ZM818 1075L825 1069L836 1060.25M818 1075L797 1046L724.5 917.25L647 884L568.5 850.5L525.5 840L476 840.5H422.5H381M836 1060.25L829.5 1039.5L793.5 938L770 876L697.5 759.5L667 720L538.5 610.765" stroke="black"/>
</svg>
