<svg width="1000" height="1195" viewBox="0 0 1000 1195" fill="none" xmlns="http://www.w3.org/2000/svg">
<g clip-path="url(#clip0_40_2)">
<path d="M130.46 288.807L111.581 344.227L169.437 356.407L186.489 392.947L195.624 422.18L248.608 395.384L309.508 374.678L323.516 381.376L341.786 404.519L354.575 422.18L378.326 479.428L386.853 501.961L382.589 514.75L368.582 522.058L366.146 536.065L375.281 551.9L385.026 554.336L392.334 542.156L405.123 536.065L428.874 538.502L444.708 535.457L454.452 528.148L460.542 518.404H466.633L470.287 509.878V498.307L458.715 483.691L451.407 481.864L410.604 424.007L392.334 399.647L386.853 381.376V356.407L413.649 331.437L454.452 311.34L505.609 304.64L444.708 286.98H390.507L341.786 276.017L282.712 234.604L229.12 213.954C225.562 214.821 222.25 215.631 219.375 216.334L160.302 245.566L130.46 288.807Z" fill="#2F1E1E"/>
<path d="M520.838 277.233L519.62 293.676L505.613 304.638L512.921 316.21L519.62 321.691L526.319 338.134L523.152 371.63L495.26 395.381L454.456 424.004H410.607L451.41 481.86L458.718 483.687L470.29 498.303L492.823 509.874L531.801 536.062L562.86 538.498L573.213 489.777V450.801L574.431 430.095L570.168 404.516L568.95 390.509L562.86 371.63L554.943 349.097L541.545 318.646L531.801 296.113L520.838 277.233Z" fill="#2F1E1E"/>
<path d="M476.99 568.948L507.441 571.384L531.802 563.467L550.68 583.564L567.732 573.82L562.861 538.498L531.802 536.061L492.825 509.874L470.292 498.303V509.874L472.728 528.144V548.242L470.292 560.422L476.99 568.948Z" fill="#2F1E1E"/>
<path d="M195.017 601.225L220.595 636.548L240.084 651.773L281.496 681.616L265.053 610.479L229.122 583.564L207.806 568.947L169.439 554.331L186.491 579.301L195.017 601.225Z" fill="#2F1E1E"/>
<path d="M366.147 536.061L368.584 522.054L382.59 514.746L386.854 501.957L378.328 479.424L354.577 422.177V441.056L334.479 474.552L312.555 495.258L274.188 518.4L253.481 528.144V560.422L297.939 587.218L344.223 604.27L368.584 607.924L385.027 601.225L378.328 578.083L368.584 548.241L366.147 536.061Z" fill="#2F1E1E"/>
<path d="M552.507 676.748L567.732 648.733L573.213 634.781L559.815 626.199H530.583L546.417 636.553L552.507 644.47L546.417 664.567L517.794 673.094L500.741 676.748L492.824 648.733L517.794 631.072L480.035 648.733L439.231 676.748L409.998 720.597L446.539 727.295L476.989 720.597L500.741 713.897L538.5 692.582L552.507 676.748Z" fill="#2F1E1E"/>
<path d="M466.634 565.912L476.987 568.957L470.288 560.431L472.724 548.25V528.153L470.288 509.882L466.634 518.409H460.544L454.454 528.153L444.71 535.461L428.875 538.506L405.124 536.07L392.335 542.16L385.027 554.34L375.282 551.904L366.147 536.07L368.584 548.25L378.328 578.092L385.027 601.235L400.861 604.279L409.996 593.926L421.567 581.746H433.138L448.364 578.092L460.544 571.393L466.634 565.912Z" fill="#2F1E1E"/>
<path fill-rule="evenodd" clip-rule="evenodd" d="M354.576 422.18L341.787 404.52L323.517 381.377L302.81 399.647L261.398 419.745L219.986 436.797L222.422 485.518L240.083 502.57L274.187 509.879L312.555 495.262L334.479 474.556L354.576 441.06V422.18ZM263.225 460.548L248.609 458.721L253.481 448.369L265.052 436.797L279.668 428.271L281.495 427.357L288.194 424.008H293.675L304.637 428.271L312.555 433.752L307.682 438.624L291.239 448.369L282.713 452.631L274.187 456.894L263.225 460.548Z" fill="#2F1E1E"/>
<path fill-rule="evenodd" clip-rule="evenodd" d="M392.337 399.646L410.607 424.006H454.456L495.259 395.383L523.152 371.632L526.319 338.136L519.619 321.693L512.92 316.212L483.079 327.783L448.366 340.572L417.915 349.098L405.735 351.534L386.856 356.407V381.376L392.337 399.646ZM438.621 382.594L417.915 386.248L416.697 378.94L428.269 366.151L444.712 360.669L451.41 359.156L463.591 356.407H477.598L472.726 364.323L458.718 377.722L438.621 382.594Z" fill="#2F1E1E"/>
<path d="M323.518 381.373L309.51 374.675L248.61 395.381L195.625 422.177L192.581 444.102L219.986 436.794L261.399 419.741L302.811 399.644L323.518 381.373Z" fill="#2F1E1E"/>
<path d="M413.652 331.435L386.856 356.405L405.735 351.533L417.915 349.097L448.366 340.57L483.079 327.781L512.92 316.21L505.612 304.639L454.455 311.338L413.652 331.435Z" fill="#2F1E1E"/>
<path d="M584.781 593.918L590.262 563.467L567.728 573.821L550.676 583.565L531.797 563.467L507.437 571.385L524.489 578.083L523.149 581.738L517.79 596.354L485.513 612.797L433.138 623.151L396.598 626.196L394.162 614.625L400.861 604.271L385.027 601.226L368.584 607.925L344.223 604.271L297.939 587.219L253.481 560.422L265.053 610.48L281.496 681.617L330.217 704.759L409.996 720.594L439.229 676.744L480.032 648.73L517.79 631.068L530.579 626.196H559.811L573.209 634.778L581.127 614.625L584.781 593.918Z" fill="#2F1E1E"/>
<path d="M578.081 450.804L574.427 430.098L573.209 450.804V489.781L562.856 538.502L567.728 573.824L590.262 563.471L592.089 542.156L590.262 518.405L584.781 487.954L578.081 450.804Z" fill="#2F1E1E"/>
<path d="M396.596 626.194L433.137 623.149L485.511 612.796L517.789 596.352L523.148 581.736H507.435L476.985 585.39L451.407 593.917C447.022 595.378 421.972 607.112 409.995 612.796L396.596 626.194Z" fill="#2F1E1E"/>
<path d="M524.491 578.091L507.438 571.392L476.987 568.955L466.635 565.911L460.544 571.392L448.364 578.091L433.139 581.745H421.568L409.997 593.925L400.861 604.278L394.162 614.632L396.598 626.203L409.997 612.805C421.974 607.121 447.024 595.387 451.409 593.925L476.987 585.399L507.438 581.745H523.151L524.491 578.091Z" fill="#2F1E1E"/>
<path d="M279.668 428.272L265.052 436.798L261.398 448.37L268.097 455.068L274.187 456.895L282.713 452.632L290.021 445.324L291.239 436.798L288.194 431.926L281.495 427.359L279.668 428.272Z" fill="#2F1E1E"/>
<path d="M438.619 382.595L458.716 377.722V364.324L451.408 359.157L444.709 360.67L428.266 366.151L427.048 375.895L432.529 381.377L438.619 382.595Z" fill="#2F1E1E"/>
<path d="M277.841 202.326C279.059 202.326 334.479 193.191 335.697 193.8C336.671 194.287 357.216 194.003 367.366 193.8L407.56 202.326L451.409 219.378L481.86 251.656C490.995 260.994 509.63 279.792 511.092 280.279C512.554 280.766 517.385 289.414 519.618 293.677L520.837 277.234L531.799 296.114L533.626 285.151L526.318 256.528L536.67 231.559L534.843 195.627L533.226 192.531C514.509 162.684 400.252 115.238 400.252 115.238C400.252 115.238 325.45 110.286 279.668 142.034C233.887 173.783 219.376 216.333 219.376 216.333C222.25 215.63 225.563 214.821 229.12 213.954C249.18 209.063 277.014 202.326 277.841 202.326Z" fill="#2F1E1E"/>
<path d="M150.56 50.6812L115.237 89.6575L138.988 131.071L157.868 178.573L212.678 115.236C230.949 99.8083 274.919 69.5606 304.638 71.9966C341.788 75.0413 420.35 77.4778 443.493 96.3569C462.006 111.46 497.897 141.627 513.529 154.822L486.733 109.755L457.5 82.9589L428.268 56.1623L400.253 29.3659L347.269 10.4866L292.459 0.742432L239.475 6.83252L188.318 23.2758L150.56 50.6812Z" fill="#2F1E1E"/>
<path d="M65.297 438.012L89.0485 469.072L115.235 89.6578H98.7923L37.8918 122.544L0.742432 216.332V288.805L22.0576 349.706L37.8918 392.945L65.297 438.012Z" fill="black"/>
<path d="M89.0485 469.072L96.9653 467.245L111.581 475.771L125.589 487.342L138.987 511.094L143.317 521.42L157.866 535.454L130.586 451.134L125.589 442.275L117.671 411.216L111.581 344.225L130.46 288.805L160.302 245.565L157.866 178.574L115.235 89.6578L89.0485 469.072Z" fill="black"/>
<path d="M169.437 356.405L111.581 344.225L195.624 422.178L186.489 392.945L169.437 356.405Z" fill="black"/>
<path d="M138.987 131.071L115.235 89.6578L157.866 178.574L138.987 131.071Z" fill="black"/>
<path d="M245.937 172.692C254.571 162.481 265.654 151.751 279.667 142.033C292.151 133.376 306.793 127.447 321.488 123.403L222.768 107.251C218.895 110.148 215.482 112.867 212.676 115.236L157.866 178.574L245.937 172.692Z" fill="black"/>
<path d="M157.866 178.574L219.375 216.332C219.375 216.332 226.362 195.843 245.937 172.692L157.866 178.574Z" fill="black"/>
<path d="M160.302 245.565C160.302 245.565 196.305 227.749 219.375 216.332L157.866 178.574L160.302 245.565Z" fill="black"/>
<path d="M400.25 115.236C400.25 115.236 434.945 129.644 469.23 147.575L513.525 154.822C497.894 141.627 462.003 111.46 443.489 96.3571C420.347 77.478 341.785 75.0415 304.636 71.9967C279.481 69.9348 244.117 91.2884 222.768 107.251L321.488 123.403C360.682 112.617 400.25 115.236 400.25 115.236Z" fill="black"/>
<path d="M406.638 202.13L233.803 215.238L519.615 293.676C517.382 289.414 512.551 280.765 511.089 280.278C509.627 279.791 490.992 260.993 481.857 251.655L451.406 219.377L407.558 202.325L406.638 202.13Z" fill="black"/>
<path d="M367.364 193.799C357.214 194.002 336.67 194.286 335.696 193.799C334.477 193.19 279.058 202.325 277.84 202.325C277.012 202.325 249.179 209.062 229.12 213.953L233.803 215.238L406.638 202.13L367.364 193.799Z" fill="black"/>
<path d="M533.223 192.53L513.525 154.822L485.962 156.663C507.547 168.884 526.517 181.836 533.223 192.53Z" fill="black"/>
<path d="M513.525 154.822L469.23 147.575C474.87 150.525 480.5 153.571 485.962 156.663L513.525 154.822Z" fill="black"/>
<path d="M444.708 286.978L505.608 304.639L233.182 215.285L232.677 215.323L282.712 234.602L341.786 276.016L390.506 286.978H444.708Z" fill="black"/>
<path d="M505.608 304.639L519.615 293.676L233.803 215.238L233.182 215.285L505.608 304.639Z" fill="black"/>
<path d="M474.765 356.405H463.587L451.406 359.155L458.714 364.322V373.316L474.765 356.405Z" fill="black"/>
<path d="M417.911 386.247L438.617 382.593L432.527 381.374L427.046 375.893L428.265 366.149L416.693 378.938L417.911 386.247Z" fill="black"/>
<path d="M458.714 377.72L472.722 364.322L477.594 356.405H474.765L458.714 373.316V377.72Z" fill="black"/>
<path d="M526.314 256.527L533.622 285.151L534.273 237.332L526.314 256.527Z" fill="black"/>
<path d="M557.633 356.769L562.855 371.63L568.944 390.509L574.425 381.374L576.252 371.63L574.425 364.322L570.163 350.315L568.944 340.571L567.726 321.692L562.855 300.376L558.591 285.151L553.72 279.06L545.802 276.016L540.321 277.843L536.667 280.278L533.622 285.151L557.633 356.769Z" fill="black"/>
<path d="M531.795 296.113L541.539 318.646L554.937 349.097L557.633 356.769L533.622 285.151L531.795 296.113Z" fill="black"/>
<path d="M111.581 344.225L117.671 411.216L138.987 395.382L111.581 344.225Z" fill="black"/>
<path d="M163.956 535.454H157.866L169.437 554.333L207.804 568.95L229.12 583.566L265.051 610.481L253.479 560.424V528.146L274.186 518.402L312.553 495.259L274.186 509.876L240.082 502.567L222.42 485.515L219.985 436.794L192.579 444.102L195.624 422.178L111.581 344.225L138.987 395.382L117.671 411.216L130.586 451.134L152.385 489.778L162.129 516.575L163.956 535.454Z" fill="black"/>
<path d="M157.866 535.454H163.956L162.129 516.575L152.385 489.778L130.586 451.134L157.866 535.454Z" fill="black"/>
<path d="M96.9653 467.245L89.0485 469.072L143.317 521.42L138.987 511.094L125.589 487.342L111.581 475.771L96.9653 467.245Z" fill="black"/>
<path d="M89.0485 469.072L195.015 601.227L169.437 554.333L157.866 535.454L146.904 529.973L143.317 521.42L89.0485 469.072Z" fill="black"/>
<path d="M172.482 601.227H195.015L89.0485 469.072L83.5674 476.989V488.561L90.266 502.567L103.055 518.402L116.454 534.236L124.979 547.025L137.769 565.905L152.385 581.739L163.956 597.573L172.482 601.227Z" fill="black"/>
<path d="M195.015 601.227L186.489 579.303L169.437 554.333L195.015 601.227Z" fill="black"/>
<path d="M146.904 529.973L157.866 535.454L143.317 521.42L146.904 529.973Z" fill="black"/>
<path d="M117.671 411.216L125.589 442.275L130.586 451.134L117.671 411.216Z" fill="black"/>
<path d="M288.193 424.005L281.494 427.355L288.193 431.923L291.238 436.794L290.02 445.321L282.712 452.629L291.238 448.366L307.681 438.621L312.553 433.75L304.636 428.268L293.674 424.005H288.193Z" fill="black"/>
<path d="M263.224 460.546L274.186 456.892L268.096 455.064L261.397 448.366L265.051 436.794L253.479 448.366L250.003 455.754L256.2 459.668L263.224 460.546Z" fill="black"/>
<path d="M256.2 459.668L250.003 455.754L248.608 458.719L256.2 459.668Z" fill="black"/>
<path d="M220.593 636.55L584.779 593.919M220.593 636.55L195.015 601.227M220.593 636.55L240.082 651.775L281.494 681.617M220.593 636.55L281.494 681.617M584.779 593.919L590.26 563.469M584.779 593.919L581.125 614.625L573.207 634.779M584.779 593.919L573.207 634.779M195.015 601.227H172.482L163.956 597.573L152.385 581.739L137.769 565.905L124.979 547.025L116.454 534.236L103.055 518.402L90.266 502.567L83.5674 488.561V476.989L89.0485 469.072M195.015 601.227L89.0485 469.072M195.015 601.227L186.489 579.303L169.437 554.333M195.015 601.227L169.437 554.333M281.494 681.617L330.215 704.759L409.994 720.594M281.494 681.617L409.994 720.594M281.494 681.617L265.051 610.481M89.0485 469.072L96.9653 467.245L111.581 475.771L125.589 487.342L138.987 511.094L143.317 521.42M89.0485 469.072L65.297 438.012L37.8918 392.945L22.0576 349.706L0.742432 288.805V216.332L37.8918 122.544L98.7923 89.6578H115.235M89.0485 469.072L115.235 89.6578M89.0485 469.072L143.317 521.42M169.437 554.333L157.866 535.454M169.437 554.333L207.804 568.95L229.12 583.566L265.051 610.481M169.437 554.333L265.051 610.481M157.866 535.454L146.904 529.973L143.317 521.42M157.866 535.454H163.956L162.129 516.575L152.385 489.778L130.586 451.134M157.866 535.454L143.317 521.42M157.866 535.454L130.586 451.134M115.235 89.6578L150.558 50.6814L188.316 23.2759L239.473 6.83254L292.456 0.742432L347.267 10.4866L400.25 29.366L428.265 56.1625L457.497 82.9591L486.729 109.755L513.525 154.822M115.235 89.6578L138.987 131.071L157.866 178.574M115.235 89.6578L157.866 178.574M115.235 89.6578L222.768 107.251M117.671 411.216L125.589 442.275L130.586 451.134M117.671 411.216L111.581 344.225M117.671 411.216L138.987 395.382L111.581 344.225M117.671 411.216L130.586 451.134M111.581 344.225L130.46 288.805L160.302 245.565M111.581 344.225L160.302 245.565M111.581 344.225L169.437 356.405L186.489 392.945L195.624 422.178M111.581 344.225L195.624 422.178M160.302 245.565C160.302 245.565 196.305 227.749 219.375 216.332M160.302 245.565L219.375 216.332M160.302 245.565L157.866 178.574M195.624 422.178L248.608 395.382L309.508 374.676L323.515 381.374M195.624 422.178L323.515 381.374M195.624 422.178L192.579 444.102L219.985 436.794M195.624 422.178L219.985 436.794M219.375 216.332C195.354 201.587 157.866 178.574 157.866 178.574M219.375 216.332L157.866 178.574M219.375 216.332C222.25 215.629 225.562 214.82 229.12 213.953M219.375 216.332L229.12 213.953M219.375 216.332C219.375 216.332 226.362 195.843 245.937 172.692M219.375 216.332L232.677 215.323M157.866 178.574L212.676 115.236C215.482 112.867 218.895 110.148 222.768 107.251M157.866 178.574L245.937 172.692M533.223 192.53L513.525 154.822M533.223 192.53C533.884 193.585 534.426 194.618 534.84 195.626M533.223 192.53L534.84 195.626M533.223 192.53L406.638 202.13M533.223 192.53C526.517 181.836 507.547 168.884 485.962 156.663M229.12 213.953C249.179 209.062 277.012 202.325 277.84 202.325C279.058 202.325 334.477 193.19 335.696 193.799C336.67 194.286 357.214 194.002 367.364 193.799L406.638 202.13M229.12 213.953L233.803 215.238M229.12 213.953L232.677 215.323M229.12 213.953L233.182 215.285M519.615 293.676C517.382 289.414 512.551 280.765 511.089 280.278C509.627 279.791 490.992 260.993 481.857 251.655L451.406 219.377L407.558 202.325L406.638 202.13M519.615 293.676L520.833 277.233L531.795 296.113M519.615 293.676L531.795 296.113M519.615 293.676L505.608 304.639M519.615 293.676L233.803 215.238M531.795 296.113L541.539 318.646L554.937 349.097L557.633 356.769M531.795 296.113L568.944 390.509M531.795 296.113L533.622 285.151M505.608 304.639L454.451 311.338L413.648 331.435L386.852 356.405M505.608 304.639L386.852 356.405M505.608 304.639L512.916 316.21M505.608 304.639L444.708 286.978H390.506L341.786 276.016L282.712 234.602L232.677 215.323M505.608 304.639L233.182 215.285M568.944 390.509L562.855 371.63L557.633 356.769M568.944 390.509L574.425 381.374L576.252 371.63L574.425 364.322L570.163 350.315L568.944 340.571L567.726 321.692L562.855 300.376L558.591 285.151L553.72 279.06L545.802 276.016L540.321 277.843L536.667 280.278L533.622 285.151M568.944 390.509L570.163 404.517L574.425 430.095M568.944 390.509L574.425 430.095M568.944 390.509L557.633 356.769M533.622 285.151L526.314 256.527L534.273 237.332M533.622 285.151L534.273 237.332M533.622 285.151L557.633 356.769M574.425 430.095L578.079 450.802L584.779 487.951L590.26 518.402L592.087 542.154L590.26 563.469M574.425 430.095L590.26 563.469M574.425 430.095L573.207 450.802V489.778L562.855 538.499M574.425 430.095L562.855 538.499M534.84 195.626L536.667 231.558L534.273 237.332M534.84 195.626L534.273 237.332M590.26 563.469L567.726 573.822M562.855 538.499L531.795 536.063L492.819 509.876L470.286 498.305M562.855 538.499L470.286 498.305M562.855 538.499L567.726 573.822M567.726 573.822L550.674 583.566L531.795 563.469L507.435 571.386M567.726 573.822L507.435 571.386M573.207 634.779L567.726 648.73L552.501 676.745L538.494 692.579L500.736 713.894L476.984 720.594L446.535 727.292L409.994 720.594M573.207 634.779L409.994 720.594M573.207 634.779L559.809 626.196H530.577M573.207 634.779L530.577 626.196M409.994 720.594L439.227 676.745L480.03 648.73L517.788 631.069M409.994 720.594L517.788 631.069M517.788 631.069L492.819 648.73L500.736 676.745L517.788 673.091L546.411 664.564L552.501 644.467L546.411 636.55L530.577 626.196M517.788 631.069L530.577 626.196M265.051 610.481L253.479 560.424M513.525 154.822C497.894 141.627 462.003 111.46 443.489 96.3571C420.347 77.478 341.785 75.0415 304.636 71.9967C279.481 69.9348 244.117 91.2884 222.768 107.251M513.525 154.822L469.23 147.575M513.525 154.822L485.962 156.663M274.186 456.892L263.224 460.546L256.2 459.668M274.186 456.892L265.051 436.794M274.186 456.892L282.712 452.629M274.186 456.892L268.096 455.064L261.397 448.366L265.051 436.794M265.051 436.794L253.479 448.366L250.003 455.754M265.051 436.794L279.667 428.268L281.494 427.355M265.051 436.794L281.494 427.355M282.712 452.629L291.238 448.366L307.681 438.621L312.553 433.75L304.636 428.268L293.674 424.005H288.193L281.494 427.355M282.712 452.629L281.494 427.355M282.712 452.629L290.02 445.321L291.238 436.794L288.193 431.923L281.494 427.355M438.617 382.593L417.911 386.247L416.693 378.938L428.265 366.149M438.617 382.593L428.265 366.149M438.617 382.593L458.714 377.72M438.617 382.593L432.527 381.374L427.046 375.893L428.265 366.149M428.265 366.149L444.708 360.668L451.406 359.155M428.265 366.149L451.406 359.155M458.714 377.72L472.722 364.322L477.594 356.405H474.765M458.714 377.72L451.406 359.155M458.714 377.72V373.316M451.406 359.155L463.587 356.405H474.765M451.406 359.155L458.714 364.322V373.316M396.596 626.196L433.136 623.152L485.511 612.798L517.788 596.355L523.147 581.739M396.596 626.196L523.147 581.739M396.596 626.196L394.16 614.625L400.859 604.272M396.596 626.196L400.859 604.272M396.596 626.196L409.994 612.798C421.971 607.115 447.022 595.381 451.406 593.919M396.596 626.196L451.406 593.919M523.147 581.739L524.487 578.085L507.435 571.386M523.147 581.739L507.435 571.386M523.147 581.739H507.435L476.984 585.393M523.147 581.739L476.984 585.393M400.859 604.272L409.994 593.919L421.565 581.739H433.136L448.362 578.085L460.541 571.386L466.632 565.905L476.984 568.95M400.859 604.272L476.984 568.95M400.859 604.272L385.025 601.227M451.406 593.919C455.791 592.458 470.286 587.626 476.984 585.393M451.406 593.919L476.984 585.393M507.435 571.386L476.984 568.95M476.984 568.95L470.286 560.424L472.722 548.243V528.146L470.286 509.876M476.984 568.95L470.286 509.876M470.286 509.876L466.632 518.402H460.541L454.451 528.146L444.708 535.454L428.873 538.499L405.122 536.063L392.333 542.154L385.025 554.333L375.28 551.898L366.145 536.063M470.286 509.876L366.145 536.063M470.286 509.876V498.305M385.025 601.227L378.326 578.085L368.582 548.243L366.145 536.063M385.025 601.227L366.145 536.063M385.025 601.227L368.582 607.926L344.221 604.272L297.937 587.22L253.479 560.424M385.025 601.227L253.479 560.424M366.145 536.063L368.582 522.056L382.589 514.748L386.852 501.959L378.326 479.426L354.575 422.178M366.145 536.063L354.575 422.178M354.575 422.178L341.786 404.517L323.515 381.374M354.575 422.178L323.515 381.374M354.575 422.178V441.058L334.477 474.553L312.553 495.259M354.575 422.178L312.553 495.259M323.515 381.374L302.809 399.645L261.397 419.742L219.985 436.794M323.515 381.374L219.985 436.794M312.553 495.259L274.186 509.876L240.082 502.567L222.42 485.515L219.985 436.794M312.553 495.259L274.186 518.402L253.479 528.146V560.424M312.553 495.259L253.479 560.424M312.553 495.259L256.2 459.668M470.286 498.305L458.714 483.688L451.406 481.861L410.603 424.005M470.286 498.305L410.603 424.005M410.603 424.005L392.333 399.645L386.852 381.374V356.405M410.603 424.005L386.852 356.405M410.603 424.005H454.451L495.255 395.382L523.147 371.63L526.314 338.135L519.615 321.692L512.916 316.21M410.603 424.005L458.714 373.316M386.852 356.405L405.731 351.533L417.911 349.097L448.362 340.571L483.075 327.781L512.916 316.21M386.852 356.405L512.916 316.21M512.916 316.21L474.765 356.405M219.985 436.794L250.003 455.754M245.937 172.692C254.571 162.481 265.654 151.751 279.667 142.033C292.151 133.376 306.793 127.447 321.488 123.403M245.937 172.692L485.962 156.663M321.488 123.403L222.768 107.251M321.488 123.403C360.682 112.617 400.25 115.236 400.25 115.236C400.25 115.236 434.945 129.644 469.23 147.575M321.488 123.403L469.23 147.575M469.23 147.575C474.87 150.525 480.5 153.571 485.962 156.663M406.638 202.13L233.803 215.238M233.803 215.238L233.182 215.285M233.182 215.285L232.677 215.323M474.765 356.405L458.714 373.316M250.003 455.754L256.2 459.668M250.003 455.754L248.608 458.719L256.2 459.668" stroke="black"/>
<path d="M366.368 696.374L365.254 706.767L400.147 701.571L446.546 706.767L485.521 725.327L527.466 783.235L561.987 824.809L571.639 832.604L589.085 813.673L607.273 798.083L612.47 793.628L620.636 787.132L628.802 780.636L627.318 776.553L618.409 743.516L606.16 681.526L597.622 638.467L566.813 590.953L542.685 553.833L517.073 525.622L503.339 508.918L484.779 489.244L467.704 476.623L449.516 464.373L435.41 453.434L431.327 450.268L418.706 441.359L399.775 439.503L392.352 441.565L386.412 443.215L380.473 453.98L386.412 469.199L399.775 487.017L417.222 502.607L438.751 523.766L464.363 549.378L478.84 579.446L490.718 608.399L495.172 629.187L488.491 631.414L480.696 628.073L469.56 623.619L451.372 615.081L435.41 610.255L414.994 606.543L387.155 602.46L367.11 600.233L333.332 602.46L321.825 603.202L313.658 605.058L287.675 603.202L270.971 611.369L265.403 623.99L267.63 631.414L276.539 646.262L296.583 653.686L316.628 656.284H349.293L376.019 659.625L400.147 665.564L419.449 674.844L430.956 680.969L422.047 681.526H408.684H396.435L382.701 684.495L370.08 690.806L366.368 696.374Z" fill="#151117"/>
<path d="M385.673 806.613L407.071 817.749L382.703 798.075L365.257 754.645H378.991L430.959 771.72L471.791 814.408L510.766 851.899L540.462 870.088L571.643 832.597L561.992 824.802L527.47 783.227L485.525 725.321L446.549 706.761L400.149 701.564L365.257 706.761L366.37 725.321L370.825 731.26L374.166 737.941L390.127 731.26L414.997 725.321L430.959 731.26L396.437 733.858L374.166 737.941L370.825 739.426L365.257 744.252L360.431 749.82L359.318 763.183L365.257 783.227L385.673 806.613Z" fill="#151117"/>
<path d="M463.992 909.807L488.12 934.677L501.112 919.458L517.816 896.073L540.459 870.089L510.763 851.9L471.787 814.409L430.956 771.721L378.988 754.646H365.254L382.7 798.076L407.068 817.75L406.086 815.151L402.93 806.614L399.775 805.871L390.124 798.076V792.879L399.775 798.076L402.93 806.614L406.086 815.151L407.068 817.75L416.479 842.62L443.205 884.937L463.992 909.807Z" fill="#151117"/>
<path fill-rule="evenodd" clip-rule="evenodd" d="M571.636 832.6L589.082 813.669L607.271 798.079L612.468 793.624L620.634 787.128L628.8 780.632L642.534 696.37L675.942 579.443L691.843 419.827L904.473 955.853L998.883 1193.86L785.816 1176.7L737.561 1149.23L655.526 1098.38L595.764 1040.1L540.456 990.36L510.76 962.401L480.322 956.952L488.117 934.68L501.109 919.461L517.813 896.075L540.456 870.091L571.636 832.6ZM876.388 956.952L863.767 962.401L869.707 966.232L876.388 956.952Z" fill="#151117"/>
<path d="M620.64 787.128L615.814 771.724L589.088 696.37L571.641 650.342L517.818 563.852L495.175 534.528L399.777 453.432M488.122 934.68L463.994 909.81L443.207 884.939L416.481 842.623L407.07 817.752L488.122 934.68ZM488.122 934.68L501.114 919.461L517.818 896.075L540.461 870.091L488.122 934.68ZM488.122 934.68L480.327 956.952L510.765 962.401L540.461 990.36L595.769 1040.1L655.532 1098.38L737.567 1149.23L785.823 1176.7L998.89 1193.86L904.48 955.853L691.849 419.827L675.948 579.443L642.54 696.37L628.806 780.632L488.122 934.68ZM402.932 806.616L406.087 815.154L407.07 817.752L402.932 806.616ZM402.932 806.616L399.777 798.079L390.126 792.882V798.079L399.777 805.874L402.932 806.616ZM407.07 817.752L385.671 806.616L365.255 783.231L359.316 763.186L360.43 749.823L365.255 744.255L370.823 739.429L374.164 737.945L407.07 817.752ZM407.07 817.752L382.702 798.079L365.255 754.648H378.99L430.957 771.724L471.789 814.412L510.765 851.903L540.461 870.091L407.07 817.752ZM374.164 737.945L370.823 731.263L366.369 725.324L365.255 706.764L374.164 737.945ZM374.164 737.945L396.436 733.861L430.957 731.263L414.996 725.324L390.126 731.263L374.164 737.945ZM365.255 706.764L366.369 696.37L370.081 690.802L382.702 684.492L396.436 681.522H408.685H422.049L430.957 680.966L365.255 706.764ZM365.255 706.764L400.148 701.567L446.548 706.764L485.523 725.324L527.469 783.231L561.99 824.805L571.641 832.6L365.255 706.764ZM451.002 681.522L439.866 680.409L430.957 680.966L451.002 681.522ZM430.957 680.966L419.45 674.841L400.148 665.561L376.02 659.622L349.294 656.281H316.628L296.584 653.682L276.539 646.258L267.63 631.41L265.403 623.987L270.971 611.366L287.675 603.199L313.659 605.055L321.825 603.199L333.332 602.457L367.111 600.23L387.156 602.457L414.996 606.54L435.412 610.252L451.373 615.078L469.562 623.615L480.698 628.07L488.493 631.41L495.175 629.183L490.72 608.396L478.842 579.443L464.365 549.376L438.753 523.763L417.223 502.604L399.777 487.014L386.414 469.197L380.474 453.977L386.414 443.213L392.353 441.563L399.777 439.501L418.708 441.357L431.329 450.265L435.412 453.432L449.517 464.371L467.706 476.621L484.781 489.241L503.341 508.915L517.075 525.619L542.688 553.83L566.816 590.95L597.625 638.463L606.163 681.522L618.412 743.513L627.321 776.549L628.806 780.632L430.957 680.966ZM628.806 780.632L642.54 798.079L655.532 824.805L695.25 849.304L723.09 872.69L732.37 879.743L737.567 872.69L749.816 879.743L801.784 922.43L863.774 962.401L628.806 780.632ZM628.806 780.632L620.64 787.128L628.806 780.632ZM571.641 832.6L589.088 813.669L607.276 798.079L571.641 832.6ZM571.641 832.6L540.461 870.091L571.641 832.6ZM863.774 962.401L869.713 966.232L876.395 956.952L863.774 962.401ZM607.276 798.079L612.473 793.624L620.64 787.128L607.276 798.079ZM607.276 798.079L591.686 776.549L537.862 680.966L480.327 656.281L422.049 631.41L390.126 623.615L353.377 623.987H313.659H282.849L607.276 798.079Z" stroke="black"/>
</g>
<defs>
<clipPath id="clip0_40_2">
<rect width="1000" height="1194.52" fill="white"/>
</clipPath>
</defs>
</svg>
